PathFileType	4	(X/Y/Z)	C:\Users\dbl\Desktop\20210112(1)\20210112\bx_y_0_1802.trc
DataRate	CameraRate	NumFrames	NumMarkers	Units	OrigDataRate	OrigDataStartFrame	OrigNumFrames
50.00	50.00	       4	43	mm	50.00	94	       375
Frame#	Time	Top.Head			R.Acromium			L.Acromium			Sternum			R.ASIS			L.ASIS			V.Sacral			R.Thigh.Upper			R.Thigh.Front			R.Thigh.Rear			R.Knee.Lat			R.Knee.Med			R.Shank.Upper			R.Shank.Front			R.Shank.Rear			R.Ankle.Lat			R.Midfoot.Lat			R.Toe.Lat			R.Toe.Tip			R.Toe.Med			R.Ankle.Med			R.Midfoot.Sup			R.Heel			L.Thigh.Upper			L.Thigh.Front			L.Thigh.Rear			L.Knee.Lat			L.Knee.Med			L.Shank.Upper			L.Shank.Front			L.Shank.Rear			L.Ankle.Lat			L.Midfoot.Lat			L.Toe.Lat			L.Toe.Tip			L.Toe.Med			L.Ankle.Med			L.Midfoot.Sup			L.Heel			origin1 front left			origin2 front right			origin 3 back right			origin 4 back leftt			
		X1	Y1	Z1	X2	Y2	Z2	X3	Y3	Z3	X4	Y4	Z4	X5	Y5	Z5	X6	Y6	Z6	X7	Y7	Z7	X8	Y8	Z8	X9	Y9	Z9	X10	Y10	Z10	X11	Y11	Z11	X12	Y12	Z12	X13	Y13	Z13	X14	Y14	Z14	X15	Y15	Z15	X16	Y16	Z16	X17	Y17	Z17	X18	Y18	Z18	X19	Y19	Z19	X20	Y20	Z20	X21	Y21	Z21	X22	Y22	Z22	X23	Y23	Z23	X24	Y24	Z24	X25	Y25	Z25	X26	Y26	Z26	X27	Y27	Z27	X28	Y28	Z28	X29	Y29	Z29	X30	Y30	Z30	X31	Y31	Z31	X32	Y32	Z32	X33	Y33	Z33	X34	Y34	Z34	X35	Y35	Z35	X36	Y36	Z36	X37	Y37	Z37	X38	Y38	Z38	X39	Y39	Z39	X40	Y40	Z40	X41	Y41	Z41	X42	Y42	Z42	X43	Y43	Z43	

94	1.860	-559.93317	112.13139	1829.62329	-639.88684	-75.15539	1534.19580	-664.71259	287.69305	1528.57300	-600.35260	102.54745	1408.31860	-654.03662	-4.88572	1047.74402	-644.61890	217.05374	1068.60315	-849.02612	95.95320	1062.75476	-696.37354	-68.38293	861.22089	-618.65814	-7.87072	817.07056	-714.32465	-45.82632	715.74744	-698.53809	-27.92014	615.33582	-670.27228	80.54976	575.22327	-704.03668	-24.19913	566.12726	-652.53925	16.84251	517.78595	-753.54297	-30.60073	488.71616	-767.44366	-4.45500	208.24664	-665.12830	-67.05499	162.95735	-623.63855	-78.15845	159.17892	-560.40088	-41.58056	162.58646	-603.46417	19.04561	167.39835	-714.64960	78.12653	215.77248	-674.64417	56.15790	158.63138	-794.19574	56.78188	175.17332	-678.04419	284.14706	882.01459	-612.12177	216.29652	830.84729	-702.50208	272.66660	747.04663	-707.83276	250.10954	636.08075	-655.97052	147.24803	576.50848	-700.39130	246.89720	573.69421	-644.84283	208.21191	529.62994	-743.08191	254.45262	502.11099	-769.28699	222.99371	205.39645	-666.67236	298.11072	160.96718	-628.80402	305.74435	163.32205	-560.29291	260.90817	165.36272	-594.97736	221.94652	173.79735	-707.80627	152.21526	214.59036	-675.31873	171.65331	156.80371	-795.52991	171.78488	184.72076	-527.97388	304.10120	146.51979	-517.48529	-72.82146	143.06996	-875.96045	-78.72068	141.40234	-882.56531	296.12286	144.57912	
95	1.880	-553.32916	111.47300	1826.38843	-636.02692	-75.77403	1531.69067	-659.88867	287.00150	1526.68726	-598.41321	101.66508	1405.31653	-658.21381	-5.10168	1046.48352	-648.79639	216.43594	1067.16455	-852.89752	95.93565	1062.78308	-699.03339	-69.16825	860.77240	-620.75867	-8.12468	817.45441	-714.24329	-46.05233	715.02344	-696.21826	-28.74395	614.96997	-667.99048	79.72695	574.87006	-701.57776	-25.16483	565.69507	-650.27869	16.08472	517.09546	-751.52747	-31.23748	488.46619	-767.34515	-4.49891	208.20573	-665.12671	-67.17170	162.88533	-623.62054	-78.28680	159.10754	-560.35120	-41.53471	162.53705	-603.48096	19.00662	167.44521	-714.44342	77.93148	215.69977	-674.68201	56.11009	158.67938	-794.19312	56.72759	175.22858	-680.44012	284.05518	881.73492	-614.43829	215.67618	831.36700	-702.76355	273.10468	746.33142	-705.99243	250.74771	635.34479	-653.91772	147.66209	576.24890	-697.98657	247.55872	573.24872	-642.60101	208.64967	529.04926	-741.00696	254.99883	501.92236	-769.21918	223.03833	205.40131	-666.66187	298.13739	160.96815	-628.78448	305.81537	163.29805	-560.27802	260.91574	165.35509	-594.94299	221.94131	173.80913	-707.58789	152.31750	214.59154	-675.31628	171.70251	156.84900	-795.44641	171.81679	184.70491	-527.97931	304.09521	146.52293	-517.49683	-72.71867	142.93896	-875.94727	-78.74124	141.38220	-882.56183	296.11526	144.55859	
96	1.900	-546.59003	110.76675	1822.70325	-632.08325	-76.35603	1528.68555	-654.88733	286.29428	1524.44482	-596.37811	100.80103	1401.96082	-662.46338	-5.39218	1044.91138	-653.08820	215.76045	1065.40955	-856.83838	95.98616	1062.64343	-701.74548	-70.03978	860.18481	-623.00024	-8.19899	817.77655	-714.13080	-46.37523	714.12988	-694.03119	-29.53475	614.48419	-665.84534	78.88864	574.55780	-699.08423	-26.09189	565.16962	-648.06525	15.27725	516.38196	-749.54193	-32.00895	488.22824	-767.20728	-4.58436	208.19798	-665.18243	-67.28298	162.79805	-623.59827	-78.42671	159.09563	-560.37329	-41.47888	162.51180	-603.52130	18.96657	167.50310	-714.27661	77.71369	215.63010	-674.80212	56.04089	158.72690	-794.18793	56.63789	175.26372	-682.95831	284.05658	881.32733	-616.81152	215.21606	831.74969	-703.13208	273.65170	745.51740	-704.04077	251.51538	634.54718	-651.71716	148.13383	575.94360	-695.43591	248.28525	572.75146	-640.22906	209.18243	528.45929	-738.86853	255.60818	501.70230	-769.14001	223.09325	205.38246	-666.63879	298.18130	160.91798	-628.77594	305.89450	163.20572	-560.24689	260.92719	165.33290	-594.91766	221.95166	173.83292	-707.39984	152.47223	214.57355	-675.32843	171.76321	156.87788	-795.35919	171.84764	184.69630	-528.00897	304.12494	146.52812	-517.53851	-72.61753	142.80026	-875.93188	-78.74536	141.36604	-882.56775	296.11664	144.55893	
97	1.920	-539.70691	110.00780	1818.55005	-628.01587	-76.92346	1525.13977	-649.70068	285.51672	1521.81836	-594.17383	99.94900	1398.13708	-666.78992	-5.73155	1043.00854	-657.42749	215.08656	1063.31299	-860.83331	96.05246	1062.35498	-704.46527	-70.95606	859.46356	-625.39355	-8.18828	818.08105	-714.10956	-46.98739	713.15277	-691.97766	-30.33686	613.96808	-663.73389	78.05663	574.30548	-696.61646	-26.95336	564.57434	-645.94336	14.38873	515.67554	-747.59503	-32.85918	487.98984	-767.02722	-4.73719	208.23148	-665.27258	-67.44292	162.67253	-623.58588	-78.56600	159.12068	-560.47186	-41.46195	162.48981	-603.58014	18.90057	167.57648	-714.12817	77.47849	215.54787	-674.98383	55.93855	158.76843	-794.17743	56.53634	175.28316	-685.59381	284.13089	880.75116	-619.20258	214.91678	831.94141	-703.63104	274.27927	744.63123	-702.04388	252.29814	633.67554	-649.49658	148.71327	575.53650	-692.84875	249.03058	572.21185	-637.86035	209.79272	527.86359	-736.71008	256.28375	501.43124	-769.06067	223.18488	205.34827	-666.61810	298.23465	160.83272	-628.77563	305.98007	163.09650	-560.21100	260.93610	165.28091	-594.92273	221.99413	173.87263	-707.24908	152.62364	214.54909	-675.33356	171.81409	156.90637	-795.28931	171.86354	184.70258	-528.04242	304.18164	146.52611	-517.57892	-72.55978	142.71957	-875.92010	-78.73022	141.35762	-882.58746	296.14856	144.59059	
